PathFileType	4	(X/Y/Z)	/Users/itak/Documents/Research/Walk-IL/dataset/trc/00140_00007.trc
DataRate	CameraRate	NumFrames	NumMarkers	Units	OrigDataRate	OrigDataStartFrame	OrigNumFrames
100.000000	100.000000	4	53	mm	100.000000	469	536
Frame#	Time	RPSI			LPSI			L3			STRN			T10			C7			CLAV			RBAK			LBAK			LSHO			LUPA			LAEL			LAOL			LWTS			LWPS			LFRA			LIFD			LHPS			LHTS			RSHO			RUPA			RAEL			RAOL			RWTS			RWPS			RFRA			RIFD			RHTS			RHPS			RBHD			LFHD			RFHD			LBHD			LHIP			RHIP			RASI			LASI			LKNE			LTHI			LANK			LTIP			LTOE			LMT1			LMT5			LHEE			RKNE			RTHI			RANK			RTIP			RTOE			RMT1			RMT5			RHEE			
		X1	Y1	Z1	X2	Y2	Z2	X3	Y3	Z3	X4	Y4	Z4	X5	Y5	Z5	X6	Y6	Z6	X7	Y7	Z7	X8	Y8	Z8	X9	Y9	Z9	X10	Y10	Z10	X11	Y11	Z11	X12	Y12	Z12	X13	Y13	Z13	X14	Y14	Z14	X15	Y15	Z15	X16	Y16	Z16	X17	Y17	Z17	X18	Y18	Z18	X19	Y19	Z19	X20	Y20	Z20	X21	Y21	Z21	X22	Y22	Z22	X23	Y23	Z23	X24	Y24	Z24	X25	Y25	Z25	X26	Y26	Z26	X27	Y27	Z27	X28	Y28	Z28	X29	Y29	Z29	X30	Y30	Z30	X31	Y31	Z31	X32	Y32	Z32	X33	Y33	Z33	X34	Y34	Z34	X35	Y35	Z35	X36	Y36	Z36	X37	Y37	Z37	X38	Y38	Z38	X39	Y39	Z39	X40	Y40	Z40	X41	Y41	Z41	X42	Y42	Z42	X43	Y43	Z43	X44	Y44	Z44	X45	Y45	Z45	X46	Y46	Z46	X47	Y47	Z47	X48	Y48	Z48	X49	Y49	Z49	X50	Y50	Z50	X51	Y51	Z51	X52	Y52	Z52	X53	Y53	Z53	

470	4.69	995.2136840820312	1115.588745117188	74.13682556152344	860.6126708984375	1118.141845703125	78.05970764160156	928.2431640625	1147.67626953125	85.41060638427734	930.5020141601562	1366.332153320312	-112.7223968505859	940.3291625976562	1293.120849609375	133.6357879638672	935.667724609375	1588.75	131.4385986328125	931.7095947265625	1496.50146484375	-62.34563446044922	1019.754028320312	1397.568481445312	163.617431640625	834.2476806640625	1569.239135742188	140.4205169677734	760.565185546875	1563.30322265625	55.86855697631836	688.2759399414062	1431.601196289062	71.29672241210938	661.1979370117188	1215.314697265625	50.56695175170898	727.4782104492188	1197.542846679688	108.7892761230469	684.2618408203125	960.4795532226562	-65.15069580078125	668.2073974609375	931.99169921875	18.84333229064941	651.1207275390625	1099.800170898438	29.61428260803223	693.0778198242188	765.957763671875	-91.04056549072266	662.9437255859375	858.4239501953125	-14.38223075866699	670.4170532226562	872.55078125	-81.64826202392578	1112.726806640625	1571.512817382812	63.8918342590332	1175.290649414062	1496.066284179688	69.48165130615234	1198.49951171875	1203.307983398438	35.20381546020508	1103.475341796875	1198.8681640625	53.65695953369141	1163.205444335938	990.5485229492188	-148.8962249755859	1203.0869140625	960.6538696289062	-83.56290435791016	1209.930419921875	1134.96533203125	-3.223723888397217	1146.71826171875	805.48876953125	-213.9845581054688	1164.8857421875	891.9346923828125	-199.2919006347656	1201.422973632812	871.4072875976562	-140.1774749755859	1016.068481445312	1760.816284179688	92.77808380126953	851.864990234375	1843.903564453125	-29.18414306640625	979.7069091796875	1857.23486328125	-52.46223449707031	886.7567749023438	1750.855224609375	125.8645401000977	745.4547119140625	1040.450073242188	-22.26614379882812	1107.496337890625	1028.425048828125	-62.98576736450195	1056.978759765625	1106.33837890625	-139.4260864257812	790.8601684570312	1113.639038085938	-121.7125930786133	765.2848510742188	542.8974609375	-137.0038757324219	741.1649780273438	686.3252563476562	-88.59562683105469	750.1939697265625	37.78802871704102	-11.92978286743164	730.9598999023438	293.5438537597656	-32.65975189208984	812.9856567382812	37.87295532226562	-238.0104370117188	844.4522705078125	39.87184524536133	-157.4870910644531	729.885498046875	38.45177841186523	-137.2381134033203	809.5337524414062	35.83757400512695	59.81083297729492	1054.181396484375	536.98681640625	-54.18824005126953	1091.938842773438	816.7427368164062	-81.31814575195312	993.8843994140625	23.21673202514648	20.23637962341309	1055.969848632812	403.2740783691406	-32.27786254882812	948.9939575195312	49.10268020629883	-212.2705230712891	902.8988647460938	45.05380630493164	-152.5780944824219	1017.769348144531	34.50923919677734	-113.9444961547852	943.3134155273438	27.10591506958008	77.54250335693359	
471	4.7	995.4094848632812	1115.859375	72.33660888671875	860.87744140625	1118.800048828125	76.22927093505859	928.5084838867188	1148.006713867188	83.59741973876953	931.0935668945312	1366.750610351562	-114.1005630493164	940.1602172851562	1293.275634765625	132.389892578125	935.6282958984375	1588.94189453125	130.4546508789062	932.2158813476562	1496.802490234375	-63.49611663818359	1019.434753417969	1397.60205078125	162.5604705810547	834.1026000976562	1569.426025390625	138.9846038818359	760.7310180664062	1563.687133789062	54.19491195678711	688.2515258789062	1432.041015625	69.03012847900391	660.9044799804688	1215.873901367188	47.59404373168945	726.8538818359375	1197.858642578125	106.0833435058594	684.0110473632812	961.183349609375	-68.47084045410156	667.5519409179688	932.658447265625	15.2299633026123	650.6802368164062	1100.4248046875	26.3432559967041	692.576904296875	766.6616821289062	-94.57272338867188	662.2443237304688	859.0939331054688	-17.92717742919922	670.0748291015625	873.2799072265625	-85.11679840087891	1112.835205078125	1571.664428710938	63.45051193237305	1175.318969726562	1496.131713867188	69.29711151123047	1198.125610351562	1203.343139648438	35.59961700439453	1103.028686523438	1199.121459960938	53.57279205322266	1163.564453125	989.4413452148438	-147.3274383544922	1203.13671875	960.021728515625	-81.60308074951172	1209.669799804688	1134.822998046875	-2.411304235458374	1147.27001953125	803.8780517578125	-211.1132659912109	1165.41064453125	890.4390869140625	-196.9877319335938	1201.663330078125	870.361328125	-137.5478210449219	1016.356811523438	1761.113159179688	91.92823028564453	852.2186279296875	1844.2705078125	-30.09907150268555	980.0524291992188	1857.490844726562	-53.34384918212891	887.0394897460938	1751.248901367188	125.0061798095703	745.6153564453125	1041.309936523438	-24.07216262817383	1107.54833984375	1028.283081054688	-64.64159393310547	1056.890625	1106.170532226562	-140.8441619873047	790.9790649414062	1114.2392578125	-123.5080337524414	764.5380859375	543.2327880859375	-134.9152679443359	740.725830078125	686.9098510742188	-87.58440399169922	750.0753173828125	37.69277191162109	-11.8369255065918	730.5632934570312	293.6579895019531	-31.46388816833496	812.8096923828125	37.91549301147461	-237.9808654785156	844.2755737304688	40.03145217895508	-157.4266815185547	729.596923828125	38.32426071166992	-137.1633605957031	809.4414672851562	35.86371994018555	59.8670654296875	1053.813110351562	536.9706420898438	-55.73736953735352	1091.59912109375	816.6517944335938	-83.19217681884766	993.8389282226562	23.29404067993164	20.20978164672852	1055.60888671875	403.2228698730469	-33.48125457763672	948.8997802734375	48.9127311706543	-212.2767181396484	902.8368530273438	44.88614273071289	-152.6020660400391	1017.730224609375	34.5109748840332	-113.9568862915039	943.2923583984375	27.15161323547363	77.51373291015625	
472	4.71	995.5965576171875	1116.127197265625	70.60882568359375	861.1210327148438	1119.442504882812	74.49204254150391	928.7498168945312	1148.3486328125	81.85996246337891	931.6161499023438	1367.156005859375	-115.437255859375	940.0032958984375	1293.429077148438	131.2174072265625	935.5689697265625	1589.142211914062	129.4815826416016	932.648193359375	1497.094482421875	-64.61012268066406	1019.1357421875	1397.658813476562	161.5089569091797	833.9526977539062	1569.61474609375	137.6005401611328	760.8695678710938	1564.064697265625	52.59213638305664	688.202392578125	1432.480346679688	66.84574127197266	660.5693359375	1216.435424804688	44.66826248168945	726.1964721679688	1198.159545898438	103.413688659668	683.6927490234375	961.94287109375	-71.84965515136719	666.8555297851562	933.3427124023438	11.50734996795654	650.1942138671875	1101.064453125	23.08073234558105	691.977294921875	767.43798828125	-98.26554870605469	661.4765014648438	859.8049926757812	-21.57197189331055	669.6630859375	874.0779418945312	-88.68156433105469	1112.907104492188	1571.84814453125	62.96621704101562	1175.331909179688	1496.246948242188	69.05442047119141	1197.7822265625	1203.426391601562	36.06529998779297	1102.632690429688	1199.4072265625	53.58685302734375	1163.915649414062	988.3551635742188	-145.6344299316406	1203.195190429688	959.4166259765625	-79.52752685546875	1209.434448242188	1134.724243164062	-1.519529104232788	1147.788696289062	802.2742309570312	-208.0654907226562	1165.907592773438	888.9376831054688	-194.5339965820312	1201.907958984375	869.338623046875	-134.7936553955078	1016.595031738281	1761.396118164062	91.11647796630859	852.5391845703125	1844.622802734375	-30.99455261230469	980.3653564453125	1857.733276367188	-54.18891143798828	887.2612915039062	1751.621337890625	124.1633148193359	745.7421264648438	1042.182861328125	-25.77781105041504	1107.544311523438	1028.161987304688	-66.291748046875	1056.83984375	1106.091674804688	-142.3020935058594	791.0463256835938	1114.833129882812	-125.19775390625	763.8480224609375	543.6021118164062	-132.8666534423828	740.3328247070312	687.5009155273438	-86.56542205810547	749.9697265625	37.62569808959961	-11.79494476318359	730.1546020507812	293.80517578125	-30.39076232910156	812.6559448242188	37.91563415527344	-238.0088958740234	844.1253662109375	40.18134689331055	-157.4174957275391	729.3505249023438	38.21871566772461	-137.1383819580078	809.3430786132812	35.91786575317383	59.86611175537109	1053.4326171875	536.9539184570312	-57.26203536987305	1091.191162109375	816.5426025390625	-85.06280517578125	993.7924194335938	23.36925506591797	20.18675231933594	1055.238525390625	403.1460876464844	-34.63618087768555	948.8005981445312	48.72144317626953	-212.2730407714844	902.7785034179688	44.71751403808594	-152.6283569335938	1017.693420410156	34.51437759399414	-113.9678192138672	943.2677001953125	27.19093132019043	77.48892974853516	
473	4.72	995.7537841796875	1116.382202148438	68.95059967041016	861.326904296875	1120.050903320312	72.83822631835938	928.9449462890625	1148.680541992188	80.19015502929688	932.06201171875	1367.531860351562	-116.7335510253906	939.852783203125	1293.566040039062	130.0975952148438	935.489501953125	1589.3330078125	128.5222930908203	933.0119018554688	1497.37109375	-65.69509887695312	1018.857055664062	1397.72119140625	160.4630889892578	833.7994995117188	1569.791015625	136.2707977294922	760.9835815429688	1564.417846679688	51.06403350830078	688.126708984375	1432.905151367188	64.75333404541016	660.1970825195312	1216.984497070312	41.80490493774414	725.50927734375	1198.429321289062	100.7920303344727	683.3129272460938	962.7467651367188	-75.27999114990234	666.1212768554688	934.0213623046875	7.723209381103516	649.6699829101562	1101.703125	19.84439468383789	691.2945556640625	768.2785034179688	-102.126350402832	660.6514892578125	860.5418701171875	-25.32376480102539	669.1889038085938	874.9356079101562	-92.34703063964844	1112.945190429688	1572.040161132812	62.43564987182617	1175.330688476562	1496.392822265625	68.74673461914062	1197.469604492188	1203.540283203125	36.5954475402832	1102.286254882812	1199.703369140625	53.69202041625977	1164.25927734375	987.282470703125	-143.8422241210938	1203.265991210938	958.824951171875	-77.36138916015625	1209.227294921875	1134.650634765625	-0.557614803314209	1148.270874023438	800.6726684570312	-204.8756713867188	1166.373168945312	887.42919921875	-191.9598999023438	1202.152954101562	868.3236694335938	-131.9419403076172	1016.782287597656	1761.654052734375	90.33992004394531	852.8263549804688	1844.94287109375	-31.87058258056641	980.642822265625	1857.953369140625	-55.00054550170898	887.4232177734375	1751.962280273438	123.334716796875	745.8511352539062	1043.045532226562	-27.35758399963379	1107.495483398438	1028.080444335938	-67.94538879394531	1056.844482421875	1106.11474609375	-143.8143310546875	791.0680541992188	1115.400512695312	-126.7995452880859	763.2188110351562	543.981201171875	-130.8523864746094	739.9735717773438	688.0748291015625	-85.55587768554688	749.87939453125	37.57562255859375	-11.7870044708252	729.7581176757812	293.9767456054688	-29.3794994354248	812.5220947265625	37.8915901184082	-238.0707702636719	844.00048828125	40.31871795654297	-157.4424743652344	729.1495361328125	38.13571929931641	-137.1462554931641	809.24658203125	35.97669219970703	59.82943725585938	1053.048461914062	536.939208984375	-58.7482795715332	1090.7021484375	816.3882446289062	-86.964111328125	993.7435302734375	23.44209861755371	20.16801834106445	1054.869384765625	403.0483093261719	-35.73385238647461	948.69921875	48.52968978881836	-212.2605895996094	902.726318359375	44.54933166503906	-152.6564483642578	1017.659240722656	34.51916885375977	-113.9777297973633	943.2392578125	27.22354507446289	77.46707153320312	
